<?xml version="1.0" standalone="no"?>
<!DOCTYPE svg PUBLIC "-//W3C//DTD SVG 20010904//EN"
 "http://www.w3.org/TR/2001/REC-SVG-20010904/DTD/svg10.dtd">
<svg version="1.0" xmlns="http://www.w3.org/2000/svg"
 width="453.000000pt" height="453.000000pt" viewBox="0 0 453.000000 453.000000"
 preserveAspectRatio="xMidYMid meet">

<g transform="translate(0.000000,453.000000) scale(0.100000,-0.100000)"
fill="#000000" stroke="none">
<path d="M1900 4520 c0 -5 -12 -10 -26 -10 -40 0 -218 -32 -224 -40 -3 -4 -38
-15 -77 -25 -40 -9 -73 -21 -73 -26 0 -5 -6 -9 -14 -9 -19 0 -120 -32 -126
-40 -3 -4 -26 -15 -52 -25 -27 -10 -48 -21 -48 -25 0 -4 -18 -13 -40 -20 -22
-7 -40 -16 -40 -20 0 -4 -20 -15 -45 -24 -25 -10 -45 -21 -45 -25 0 -5 -19
-17 -42 -27 -24 -10 -50 -26 -60 -34 -9 -8 -27 -23 -40 -32 -13 -10 -44 -33
-71 -53 -26 -19 -49 -35 -51 -35 -2 0 -35 -30 -74 -67 -38 -38 -88 -84 -111
-103 -22 -19 -40 -39 -41 -44 0 -5 -27 -36 -61 -69 -33 -33 -58 -62 -55 -65 3
-3 -3 -11 -14 -19 -11 -8 -20 -20 -20 -28 0 -8 -9 -19 -20 -25 -11 -6 -20 -17
-20 -25 0 -8 -8 -20 -18 -27 -10 -7 -25 -28 -33 -45 -7 -18 -18 -33 -22 -33
-4 0 -15 -16 -23 -35 -8 -19 -19 -35 -24 -35 -6 0 -10 -6 -10 -14 0 -7 -9 -25
-20 -38 -10 -14 -16 -28 -13 -32 3 -3 2 -6 -3 -6 -5 0 -16 -20 -23 -45 -7 -25
-17 -45 -23 -45 -5 0 -6 -4 -3 -10 3 -5 2 -10 -3 -10 -6 0 -16 -20 -23 -45 -7
-25 -16 -45 -20 -45 -4 0 -15 -30 -25 -67 -10 -38 -21 -70 -24 -73 -4 -3 -15
-39 -26 -80 -10 -41 -21 -77 -25 -80 -3 -3 -15 -63 -25 -135 -27 -184 -27
-705 0 -875 10 -63 21 -117 25 -120 4 -3 15 -41 24 -85 9 -44 22 -81 27 -83 6
-2 10 -10 10 -17 0 -19 33 -119 41 -125 4 -3 12 -24 18 -47 7 -24 16 -43 21
-43 5 0 7 -7 4 -15 -4 -8 -2 -15 4 -15 6 0 16 -16 22 -35 6 -19 16 -35 21 -35
5 0 8 -3 7 -7 -2 -12 31 -83 40 -83 4 0 16 -20 27 -45 10 -24 25 -47 32 -49 7
-3 13 -11 13 -19 0 -7 8 -22 17 -33 34 -38 83 -103 83 -110 0 -3 12 -18 26
-33 267 -273 394 -391 421 -391 7 0 17 -9 23 -20 6 -11 16 -20 23 -20 7 0 25
-11 41 -25 17 -14 40 -28 53 -31 13 -4 23 -10 23 -15 0 -4 16 -16 35 -25 19
-9 35 -19 35 -23 0 -4 23 -15 50 -25 28 -10 50 -21 50 -25 0 -4 26 -16 58 -27
31 -10 62 -24 69 -30 7 -7 35 -17 63 -24 27 -7 50 -15 50 -20 0 -4 27 -13 60
-20 33 -7 60 -16 60 -20 0 -5 45 -16 100 -25 55 -10 100 -21 100 -25 0 -14
271 -33 475 -34 196 -1 433 17 445 33 3 4 49 15 103 25 53 10 97 21 97 25 0 5
25 14 55 21 30 7 55 17 55 22 0 4 6 8 14 8 19 0 120 32 126 40 3 4 26 15 53
25 26 10 47 21 47 24 0 4 23 15 50 25 28 10 50 21 50 25 0 4 20 15 44 25 25
10 47 25 50 32 3 8 12 14 20 14 8 0 19 6 23 13 4 6 23 20 42 31 19 10 42 26
52 35 11 9 28 24 39 34 11 9 24 17 29 17 5 0 18 10 28 23 10 12 29 29 43 38
35 23 249 239 255 258 3 9 18 25 35 36 16 11 29 24 27 29 -2 6 4 18 12 27 9
10 25 30 36 45 11 14 27 34 35 43 9 9 24 33 33 54 10 20 22 37 26 37 5 0 14
14 20 30 5 17 15 30 22 30 6 0 9 7 5 15 -3 8 -1 15 4 15 4 0 14 16 20 35 6 19
16 35 22 35 6 0 8 7 4 15 -3 8 -1 15 4 15 4 0 14 16 20 35 6 19 16 35 22 35 5
0 8 6 6 12 -3 7 1 18 8 25 7 7 15 31 19 53 4 22 10 40 14 40 8 0 41 107 41
133 0 9 4 17 9 17 5 0 15 32 22 70 7 39 16 70 22 70 5 0 7 13 5 30 -2 16 -1
31 3 32 15 6 32 244 32 458 0 220 -16 444 -34 466 -5 6 -6 14 -2 17 3 4 1 17
-5 30 -6 12 -16 52 -22 90 -7 37 -16 67 -20 67 -4 0 -16 33 -26 72 -9 40 -23
78 -30 85 -7 7 -15 31 -19 53 -4 22 -11 40 -16 40 -6 0 -7 5 -4 10 3 6 2 10
-3 10 -5 0 -15 18 -22 40 -7 22 -17 40 -22 40 -4 0 -7 3 -7 8 3 13 -34 92 -42
92 -5 0 -15 16 -23 35 -8 19 -24 44 -35 57 -12 12 -21 28 -21 35 0 7 -4 13
-10 13 -5 0 -17 17 -27 38 -9 20 -25 43 -35 50 -10 7 -18 19 -18 27 0 8 -9 19
-20 25 -11 6 -20 16 -20 22 0 7 -22 33 -50 59 -27 26 -50 51 -50 57 0 12 -130
141 -157 155 -10 6 -36 30 -59 54 -23 24 -46 43 -52 43 -6 0 -16 9 -22 20 -6
11 -17 20 -25 20 -8 0 -20 8 -27 18 -7 10 -30 26 -50 35 -21 10 -38 22 -38 26
0 5 -20 17 -45 28 -25 10 -45 21 -45 25 0 4 -16 14 -35 22 -19 8 -35 19 -35
24 0 5 -19 15 -42 22 -24 8 -45 17 -48 20 -3 4 -26 15 -52 25 -27 10 -48 21
-48 24 0 3 -30 15 -67 25 -38 11 -70 22 -73 26 -3 3 -36 15 -75 25 -38 10 -72
22 -75 26 -3 4 -60 15 -128 25 -67 10 -122 22 -122 26 0 4 -162 8 -360 8 -233
0 -360 -4 -360 -10z m549 -371 c64 -6 118 -15 121 -18 3 -4 51 -16 108 -26 56
-10 102 -21 102 -25 0 -3 23 -12 50 -19 28 -7 50 -16 50 -20 0 -4 25 -13 55
-20 30 -7 61 -18 68 -25 6 -7 35 -21 62 -31 28 -11 52 -22 55 -25 3 -4 24 -15
48 -25 23 -11 42 -22 42 -26 0 -4 18 -14 40 -23 22 -9 40 -20 40 -24 0 -5 12
-14 28 -21 15 -7 34 -19 42 -27 46 -42 74 -64 90 -69 10 -3 25 -17 34 -30 9
-14 21 -25 27 -25 14 0 199 -194 213 -223 13 -27 32 -52 49 -65 9 -7 17 -20
17 -28 0 -8 5 -14 10 -14 6 0 14 -10 19 -22 5 -13 21 -38 35 -57 14 -19 26
-41 26 -47 0 -7 7 -17 16 -22 9 -5 16 -13 17 -18 2 -20 30 -84 37 -84 5 0 16
-27 26 -60 10 -33 21 -60 25 -60 4 0 15 -29 24 -65 10 -36 21 -65 25 -65 4 0
14 -29 21 -65 7 -36 16 -65 20 -65 4 0 5 -9 2 -21 -3 -12 -1 -24 5 -28 6 -3
16 -56 23 -116 7 -61 15 -112 18 -115 9 -8 7 -310 -1 -310 -5 0 -8 -15 -8 -32
0 -56 -23 -198 -32 -198 -4 0 -8 -9 -8 -20 0 -28 -32 -154 -40 -160 -4 -3 -15
-35 -25 -72 -10 -38 -21 -68 -24 -68 -4 0 -15 -25 -26 -55 -10 -30 -22 -55
-26 -55 -5 0 -14 -18 -20 -40 -7 -22 -16 -40 -21 -40 -5 0 -6 -4 -3 -10 3 -5
1 -10 -4 -10 -6 0 -11 -6 -11 -13 0 -7 -9 -23 -21 -35 -11 -12 -17 -27 -14
-32 3 -6 1 -10 -5 -10 -6 0 -15 -11 -20 -25 -5 -14 -13 -25 -17 -25 -5 0 -17
-17 -28 -38 -11 -20 -28 -43 -37 -50 -10 -7 -18 -20 -18 -27 0 -8 -9 -20 -20
-27 -11 -7 -20 -17 -20 -21 0 -13 -215 -227 -228 -227 -6 0 -16 -9 -22 -20 -6
-11 -17 -20 -25 -20 -8 0 -20 -8 -27 -18 -7 -10 -30 -26 -50 -35 -21 -10 -38
-22 -38 -26 0 -4 -19 -16 -42 -27 -24 -10 -47 -24 -51 -31 -4 -7 -14 -13 -22
-13 -7 0 -20 -6 -27 -13 -7 -7 -34 -22 -61 -32 -26 -10 -47 -21 -47 -25 0 -4
-26 -15 -57 -26 -32 -10 -60 -22 -63 -25 -3 -4 -32 -14 -65 -24 -33 -9 -62
-20 -65 -24 -6 -9 -151 -41 -184 -41 -14 0 -26 -4 -28 -10 -1 -5 -32 -11 -68
-12 l-65 -3 -3 332 -2 332 22 12 c13 7 25 15 28 19 3 3 42 15 88 25 45 10 82
22 82 26 0 4 16 13 35 19 19 6 35 15 35 18 0 4 20 16 45 27 25 11 45 23 45 27
0 4 16 15 36 24 38 18 214 191 214 210 0 7 7 14 15 18 8 3 20 17 25 31 5 14
14 25 19 25 5 0 14 14 21 30 7 16 17 30 22 30 6 0 8 7 4 15 -3 8 -1 15 4 15 6
0 15 20 22 45 7 25 16 45 21 45 4 0 5 5 2 10 -3 6 -2 10 4 10 5 0 15 32 22 70
7 39 16 70 22 70 5 0 7 23 5 50 -1 28 0 50 5 50 4 0 7 162 7 359 l0 359 -27
31 -27 31 -180 0 c-159 0 -180 2 -192 18 -10 13 -13 78 -14 286 l0 269 -30 28
c-30 29 -30 29 -163 29 -128 0 -133 -1 -160 -25 l-27 -26 0 -272 c0 -261 -1
-273 -20 -290 -18 -15 -45 -17 -207 -17 -165 0 -187 2 -199 18 -10 13 -13 78
-14 286 l0 269 -30 28 c-30 29 -30 29 -163 29 -128 0 -133 -1 -160 -25 l-27
-26 0 -272 c0 -261 -1 -273 -20 -290 -17 -15 -44 -17 -194 -17 l-173 0 -27
-26 -26 -27 0 -316 c0 -310 12 -543 29 -549 4 -1 6 -14 3 -27 -2 -14 0 -25 5
-25 5 0 15 -22 22 -50 7 -28 17 -50 22 -50 5 0 8 -3 7 -7 -1 -5 4 -21 10 -36
7 -16 12 -33 12 -38 0 -5 4 -9 9 -9 5 0 20 -20 32 -45 12 -25 25 -45 29 -45 3
0 14 -14 24 -31 17 -28 150 -166 187 -194 69 -52 118 -84 137 -89 12 -4 22
-11 22 -15 0 -4 18 -14 40 -21 22 -7 40 -16 40 -20 0 -3 35 -15 78 -25 42 -10
79 -21 82 -24 3 -4 14 -11 25 -17 19 -11 20 -22 20 -345 l0 -334 -60 4 c-33 2
-62 6 -65 10 -3 4 -49 15 -102 25 -54 10 -98 21 -98 25 0 4 -34 16 -75 26 -41
11 -75 22 -75 27 0 4 -25 15 -55 23 -30 9 -55 20 -55 24 0 4 -22 15 -50 25
-28 10 -50 21 -50 25 0 4 -16 13 -35 20 -19 7 -35 16 -35 20 0 4 -18 16 -40
26 -22 10 -40 21 -40 25 0 3 -16 14 -35 23 -19 9 -35 21 -35 26 0 5 -9 12 -19
16 -11 3 -43 28 -72 55 -30 28 -56 50 -60 50 -10 0 -159 152 -159 163 0 5 -11
18 -25 29 -14 11 -25 25 -25 31 0 7 -9 18 -20 25 -11 7 -20 18 -20 26 0 8 -6
16 -13 19 -6 3 -21 22 -32 43 -11 22 -25 43 -32 47 -7 4 -13 14 -13 22 0 8 -8
22 -19 32 -10 10 -24 35 -32 56 -7 20 -17 37 -21 37 -4 0 -7 3 -7 8 3 12 -34
92 -42 92 -4 0 -5 9 -2 20 3 11 0 20 -6 20 -6 0 -16 20 -22 45 -6 25 -15 45
-19 45 -5 0 -16 35 -26 77 -10 43 -21 80 -25 83 -8 6 -39 175 -39 212 0 14 -6
28 -12 31 -19 6 -18 459 0 465 6 2 12 14 12 26 0 37 32 211 40 216 4 3 15 37
25 75 10 39 22 72 25 75 4 3 13 26 21 53 7 26 17 47 21 47 4 0 5 7 2 15 -4 8
-2 15 4 15 6 0 16 16 22 35 6 19 16 35 22 35 6 0 8 7 4 15 -3 8 -1 15 4 15 4
0 14 16 20 36 7 19 18 38 25 41 8 2 17 18 20 34 4 16 12 32 19 36 7 5 21 26
32 48 10 22 26 46 36 53 10 7 18 19 18 27 0 8 9 19 20 25 11 6 20 16 20 22 0
21 257 278 278 278 6 0 16 9 22 20 6 11 17 20 25 20 8 0 19 8 24 18 5 10 25
24 45 32 20 7 36 18 36 22 0 5 16 16 35 24 19 8 35 18 35 22 0 4 23 16 50 26
28 10 50 21 50 25 0 4 24 16 53 26 28 10 58 24 65 31 12 13 75 34 100 34 6 0
12 4 12 9 0 5 17 12 38 16 20 4 55 15 77 25 22 10 76 24 120 31 44 7 82 17 85
21 17 23 330 33 499 17z m459 -1771 c22 -22 7 -382 -17 -397 -5 -4 -14 -32
-21 -63 -7 -32 -17 -58 -22 -58 -5 0 -6 -4 -3 -10 3 -5 1 -10 -4 -10 -6 0 -11
-7 -11 -15 0 -8 -9 -24 -20 -35 -12 -12 -18 -25 -15 -29 2 -5 -2 -11 -10 -15
-8 -3 -15 -11 -15 -18 0 -15 -103 -118 -117 -118 -5 0 -19 -9 -31 -21 -13 -11
-39 -27 -60 -36 -20 -8 -39 -19 -42 -24 -3 -5 -37 -16 -75 -26 -39 -10 -73
-22 -77 -27 -9 -13 -208 -13 -216 0 -4 6 -35 17 -70 24 -35 7 -69 18 -75 24
-7 7 -28 18 -47 25 -19 8 -39 19 -45 26 -5 6 -17 14 -25 18 -44 20 -130 102
-130 124 0 7 -5 13 -10 13 -6 0 -18 16 -27 35 -9 19 -20 35 -25 35 -4 0 -5 7
-2 15 4 8 2 15 -4 15 -6 0 -16 16 -22 35 -6 19 -16 35 -20 35 -5 0 -7 7 -3 16
3 9 1 19 -5 23 -29 18 -47 412 -20 439 17 17 1269 17 1286 0z"/>
</g>
</svg>
